<svg width="24" height="25" viewBox="0 0 24 25" fill="none" xmlns="http://www.w3.org/2000/svg">
<g clip-path="url(#clip0_1735_3285)">
<path fill-rule="evenodd" clip-rule="evenodd" d="M9.52839 1.72946C9.74339 1.94446 9.80731 2.268 9.69021 2.54861C9.2458 3.61364 9 4.78303 9 6.01173C9 10.9823 13.0294 15.0117 18 15.0117C19.2287 15.0117 20.3981 14.7659 21.4631 14.3215C21.7437 14.2044 22.0673 14.2683 22.2823 14.4833C22.4973 14.6983 22.5612 15.0219 22.4441 15.3025C20.8618 19.0944 17.1183 21.7617 12.75 21.7617C6.95101 21.7617 2.25 17.0607 2.25 11.2617C2.25 6.89344 4.91735 3.14989 8.70924 1.56763C8.98985 1.45054 9.31338 1.51445 9.52839 1.72946Z" fill="currentColor"/>
</g>
<defs>
<clipPath id="clip0_1735_3285">
<rect width="24" height="24" fill="white" transform="translate(0 0.0115967)"/>
</clipPath>
</defs>
</svg>
