<svg width="24" height="24" viewBox="0 0 24 24" fill="none" xmlns="http://www.w3.org/2000/svg">
<path d="M12 2.25464C12.4142 2.25464 12.75 2.59043 12.75 3.00464V5.25464C12.75 5.66885 12.4142 6.00464 12 6.00464C11.5858 6.00464 11.25 5.66885 11.25 5.25464V3.00464C11.25 2.59043 11.5858 2.25464 12 2.25464Z" fill="currentColor"/>
<path d="M7.5 12.0046C7.5 9.51936 9.51472 7.50464 12 7.50464C14.4853 7.50464 16.5 9.51936 16.5 12.0046C16.5 14.4899 14.4853 16.5046 12 16.5046C9.51472 16.5046 7.5 14.4899 7.5 12.0046Z" fill="currentColor"/>
<path d="M18.8943 6.17098C19.1872 5.87808 19.1872 5.40321 18.8943 5.11032C18.6014 4.81742 18.1266 4.81742 17.8337 5.11032L16.2427 6.70131C15.9498 6.9942 15.9498 7.46907 16.2427 7.76197C16.5356 8.05486 17.0105 8.05486 17.3034 7.76197L18.8943 6.17098Z" fill="currentColor"/>
<path d="M21.75 12.0046C21.75 12.4189 21.4142 12.7546 21 12.7546H18.75C18.3358 12.7546 18 12.4189 18 12.0046C18 11.5904 18.3358 11.2546 18.75 11.2546H21C21.4142 11.2546 21.75 11.5904 21.75 12.0046Z" fill="currentColor"/>
<path d="M17.8336 18.8989C18.1265 19.1918 18.6013 19.1918 18.8942 18.8989C19.1871 18.606 19.1871 18.1311 18.8942 17.8382L17.3032 16.2472C17.0103 15.9543 16.5355 15.9543 16.2426 16.2472C15.9497 16.5401 15.9497 17.015 16.2426 17.3079L17.8336 18.8989Z" fill="currentColor"/>
<path d="M12 18.0046C12.4142 18.0046 12.75 18.3404 12.75 18.7546V21.0046C12.75 21.4189 12.4142 21.7546 12 21.7546C11.5858 21.7546 11.25 21.4189 11.25 21.0046V18.7546C11.25 18.3404 11.5858 18.0046 12 18.0046Z" fill="currentColor"/>
<path d="M7.7575 17.3079C8.0504 17.015 8.0504 16.5401 7.7575 16.2472C7.46461 15.9544 6.98974 15.9544 6.69684 16.2472L5.10585 17.8382C4.81296 18.1311 4.81296 18.606 5.10585 18.8989C5.39875 19.1918 5.87362 19.1918 6.16651 18.8989L7.7575 17.3079Z" fill="currentColor"/>
<path d="M6 12.0046C6 12.4189 5.66421 12.7546 5.25 12.7546H3C2.58579 12.7546 2.25 12.4189 2.25 12.0046C2.25 11.5904 2.58579 11.2546 3 11.2546H5.25C5.66421 11.2546 6 11.5904 6 12.0046Z" fill="currentColor"/>
<path d="M6.69673 7.76196C6.98962 8.05485 7.4645 8.05485 7.75739 7.76196C8.05028 7.46907 8.05028 6.99419 7.75739 6.7013L6.1664 5.11031C5.87351 4.81741 5.39863 4.81741 5.10574 5.11031C4.81285 5.4032 4.81285 5.87807 5.10574 6.17097L6.69673 7.76196Z" fill="currentColor"/>
</svg>
